<svg width="1440" height="852" viewBox="0 0 1440 852" fill="none" xmlns="http://www.w3.org/2000/svg">
<path opacity="0.8" fill-rule="evenodd" clip-rule="evenodd" d="M70.3871 -384.824C14.1254 -359.52 -54.5481 -328.18 -91.0871 -268.837C-126.119 -211.943 -120.18 -158.428 -116.389 -89.4178C-113.058 -28.7932 -80.3096 -2.21696 -44.8531 46.7203C-2.83025 104.72 23.1956 180.714 91.814 206.113C164.781 233.121 225.495 286.269 304.461 287.92C367.613 289.239 451.213 226.512 472.17 153.028C486.841 101.581 486.725 -2.09499 505.118 -52.5243C551.738 -180.347 530.548 -200.802 703.048 -297.793C780.261 -341.207 364.259 -425.344 265.849 -424.601C185.662 -423.996 131.672 -412.386 70.3871 -384.824Z" fill="#C7199D"/>
<path fill-rule="evenodd" clip-rule="evenodd" d="M1531.01 19.2537C1554.22 81.3754 1574.99 149.762 1552.49 212.137C1529.78 275.087 1471.47 317.75 1412.17 348.726C1356.83 377.628 1294.32 374.736 1232.07 379.493C1158.3 385.13 1080.55 414.379 1015.54 379.035C946.405 341.451 885.003 268.824 883.782 190.137C882.58 112.619 993.794 125.116 1042.81 62.6453C1074.42 18.5282 1114.07 -32.8973 1138.44 -81.5405C1180.78 -166.062 1193.46 -293.621 1271.07 -342.085C1359.65 -404.63 1375.71 -187.595 1426.58 -124.898C1464.91 -77.6695 1509.73 -37.7247 1531.01 19.2537Z" fill="#C7199D"/>
<path opacity="0.96" d="M595.5 755.5C417.5 886 330 884 0 746.5V-3H1442.5L1467 755C1467 758.5 1487.87 766.55 1435 763C1332.11 756.092 1370 669 1370 620C1370 567 1264 601 1230.5 610C1171.5 625.851 1091.5 673.5 982.5 699.5C842.916 732.795 884.197 543.843 595.5 755.5Z" fill="url(#paint0_linear_309_15)"/>
<defs>
<linearGradient id="paint0_linear_309_15" x1="-2.36871e-06" y1="380" x2="1432.5" y2="431.5" gradientUnits="userSpaceOnUse">
<stop stop-color="#734192"/>
<stop offset="1" stop-color="#9B309D"/>
</linearGradient>
</defs>
</svg>
