<svg width="46" height="47" viewBox="0 0 46 47" fill="none" xmlns="http://www.w3.org/2000/svg">
<g id="clarity:email-line">
<path id="Vector" d="M40.889 8.20905H5.11122C4.43344 8.20905 3.78343 8.47829 3.30417 8.95755C2.82491 9.43681 2.55566 10.0868 2.55566 10.7646V36.3202C2.55566 36.9979 2.82491 37.6479 3.30417 38.1272C3.78343 38.6065 4.43344 38.8757 5.11122 38.8757H40.889C41.5668 38.8757 42.2168 38.6065 42.696 38.1272C43.1753 37.6479 43.4445 36.9979 43.4445 36.3202V10.7646C43.4445 10.0868 43.1753 9.43681 42.696 8.95755C42.2168 8.47829 41.5668 8.20905 40.889 8.20905V8.20905ZM38.9212 36.3202H7.23233L16.1768 27.069L14.3368 25.2929L5.11122 34.8379V12.7068L20.994 28.5129C21.4728 28.9889 22.1205 29.2561 22.7957 29.2561C23.4708 29.2561 24.1185 28.9889 24.5973 28.5129L40.889 12.3107V34.6718L31.4845 25.2674L29.6829 27.069L38.9212 36.3202ZM6.78511 10.7646H38.819L22.7957 26.6985L6.78511 10.7646Z" fill="white"/>
</g>
</svg>
