<svg width="14" height="14" viewBox="0 0 14 14" fill="none" xmlns="http://www.w3.org/2000/svg">
<g id="004-instagram">
<path id="Shape" fill-rule="evenodd" clip-rule="evenodd" d="M4.5625 0.5H9.4375C11.6808 0.5 13.5 2.31919 13.5 4.5625V9.4375C13.5 11.6808 11.6808 13.5 9.4375 13.5H4.5625C2.31919 13.5 0.5 11.6808 0.5 9.4375V4.5625C0.5 2.31919 2.31919 0.5 4.5625 0.5ZM9.43754 12.2812C11.0057 12.2812 12.2813 11.0056 12.2813 9.4375V4.5625C12.2813 2.99437 11.0057 1.71875 9.43754 1.71875H4.56254C2.99441 1.71875 1.71879 2.99437 1.71879 4.5625V9.4375C1.71879 11.0056 2.99441 12.2812 4.56254 12.2812H9.43754Z" fill="#1C2661"/>
<path id="Shape_2" fill-rule="evenodd" clip-rule="evenodd" d="M3.75 6.99951C3.75 5.2047 5.20519 3.74951 7 3.74951C8.79481 3.74951 10.25 5.2047 10.25 6.99951C10.25 8.79432 8.79481 10.2495 7 10.2495C5.20519 10.2495 3.75 8.79432 3.75 6.99951ZM4.9688 6.99944C4.9688 8.11906 5.88043 9.03069 7.00005 9.03069C8.11968 9.03069 9.0313 8.11906 9.0313 6.99944C9.0313 5.879 8.11968 4.96819 7.00005 4.96819C5.88043 4.96819 4.9688 5.879 4.9688 6.99944Z" fill="#1C2661"/>
<circle id="Oval" cx="10.4936" cy="3.5063" r="0.433063" fill="#1C2661"/>
</g>
</svg>
