<svg width="46" height="47" viewBox="0 0 46 47" fill="none" xmlns="http://www.w3.org/2000/svg">
<g id="clarity:map-marker-line">
<path id="Vector" d="M23.0004 9.12903C21.5523 9.12903 20.1367 9.55844 18.9327 10.363C17.7286 11.1675 16.7902 12.311 16.236 13.6488C15.6819 14.9867 15.5369 16.4588 15.8194 17.8791C16.1019 19.2993 16.7992 20.6039 17.8232 21.6279C18.8471 22.6518 20.1517 23.3492 21.572 23.6317C22.9923 23.9142 24.4644 23.7692 25.8023 23.215C27.1401 22.6609 28.2836 21.7224 29.0881 20.5184C29.8926 19.3144 30.322 17.8988 30.322 16.4507C30.322 14.5089 29.5507 12.6466 28.1776 11.2735C26.8045 9.90042 24.9422 9.12903 23.0004 9.12903V9.12903ZM23.0004 21.2168C22.0577 21.2168 21.1363 20.9373 20.3525 20.4136C19.5687 19.8899 18.9578 19.1455 18.5971 18.2746C18.2363 17.4037 18.1419 16.4454 18.3258 15.5209C18.5098 14.5963 18.9637 13.7471 19.6302 13.0805C20.2968 12.414 21.146 11.9601 22.0706 11.7762C22.9951 11.5923 23.9534 11.6866 24.8243 12.0474C25.6952 12.4081 26.4395 13.019 26.9633 13.8028C27.487 14.5866 27.7665 15.508 27.7665 16.4507C27.7631 17.7125 27.2595 18.9215 26.366 19.8126C25.4726 20.7036 24.2622 21.204 23.0004 21.204V21.2168Z" fill="white"/>
<path id="Vector_2" d="M23.0005 3.0979C19.0204 3.10122 15.2034 4.67939 12.3832 7.4877C9.56288 10.296 7.9685 14.1063 7.94824 18.0862C7.94824 24.0535 11.296 29.0496 13.7494 32.6912L14.1966 33.3557C16.6375 36.8934 19.256 40.3051 22.0421 43.5779L23.0132 44.7151L23.9844 43.5779C26.7701 40.3049 29.3886 36.8931 31.8299 33.3557L32.2771 32.6785C34.7177 29.0368 38.0655 24.0535 38.0655 18.0862C38.0452 14.104 36.4491 10.2919 33.626 7.4832C30.803 4.67452 26.9827 3.09785 23.0005 3.0979V3.0979ZM30.1432 31.209L29.6832 31.8862C27.4855 35.1829 24.5721 38.8757 23.0005 40.7029C21.4927 38.8757 18.5155 35.1829 16.3177 31.8862L15.8705 31.209C13.6088 27.8357 10.5038 23.2229 10.5038 18.0351C10.5038 16.394 10.827 14.769 11.455 13.2529C12.0831 11.7367 13.0036 10.3591 14.164 9.19864C15.3244 8.03822 16.702 7.11772 18.2182 6.48971C19.7344 5.86169 21.3594 5.53846 23.0005 5.53846C24.6415 5.53846 26.2666 5.86169 27.7827 6.48971C29.2989 7.11772 30.6765 8.03822 31.8369 9.19864C32.9974 10.3591 33.9179 11.7367 34.5459 13.2529C35.1739 14.769 35.4971 16.394 35.4971 18.0351C35.4971 23.274 32.4049 27.8868 30.1432 31.209V31.209Z" fill="white"/>
</g>
</svg>
