<svg width="46" height="47" viewBox="0 0 46 47" fill="none" xmlns="http://www.w3.org/2000/svg">
<g id="clarity:phone-handset-line">
<path id="Vector" d="M35.4327 45.8268C35.003 45.8256 34.5746 45.7785 34.1549 45.6862C26.1645 44.0333 18.8032 40.1578 12.9183 34.5057C7.15889 28.8412 3.16446 21.629 1.41825 13.7418C1.21235 12.7588 1.26289 11.7394 1.565 10.7816C1.86711 9.82379 2.41062 8.95985 3.14325 8.2729L8.25437 3.35346C8.51542 3.10658 8.82561 2.91752 9.16468 2.79863C9.50374 2.67973 9.86407 2.63367 10.2221 2.66346C10.5934 2.70219 10.9517 2.82179 11.2718 3.01385C11.5919 3.20591 11.866 3.46576 12.0749 3.77513L18.4638 13.2179C18.7034 13.5843 18.8191 14.0179 18.7937 14.455C18.7684 14.892 18.6035 15.3094 18.3233 15.6457L15.116 19.479C16.3934 22.306 18.2023 24.8611 20.4444 27.0051C22.6719 29.2269 25.3048 31.001 28.2005 32.2312L32.1744 29.0751C32.5081 28.8113 32.9143 28.6554 33.3388 28.628C33.7633 28.6006 34.1861 28.7031 34.551 28.9218L44.1983 35.1573C44.5293 35.355 44.8114 35.625 45.0233 35.9472C45.2351 36.2693 45.3714 36.6352 45.4218 37.0175C45.4722 37.3998 45.4354 37.7885 45.3143 38.1546C45.1931 38.5206 44.9907 38.8545 44.7221 39.1312L39.7388 44.0635C39.1727 44.6267 38.5009 45.0725 37.7619 45.3752C37.0228 45.6778 36.2313 45.8313 35.4327 45.8268V45.8268ZM10.0177 5.19346L4.90659 10.1129C4.49444 10.4969 4.18935 10.9816 4.02132 11.5193C3.8533 12.057 3.82811 12.6292 3.94825 13.1796C5.57195 20.5806 9.30434 27.3531 14.6944 32.6785C20.2325 37.996 27.1599 41.6413 34.6788 43.1946C35.2479 43.3136 35.8377 43.2895 36.3952 43.1244C36.9527 42.9594 37.4606 42.6586 37.8733 42.249L42.8566 37.3168L33.5416 31.2985L29.2738 34.6973C29.1104 34.8267 28.9179 34.9141 28.713 34.9519C28.5081 34.9898 28.2971 34.977 28.0983 34.9146C24.5546 33.6089 21.3432 31.5364 18.6938 28.8451C15.9534 26.286 13.8263 23.1411 12.471 19.6451C12.4137 19.4335 12.4118 19.2106 12.4655 18.998C12.5192 18.7855 12.6267 18.5903 12.7777 18.4312L16.2277 14.304L10.0177 5.19346Z" fill="white"/>
</g>
</svg>
