<svg width="14" height="12" viewBox="0 0 14 12" fill="none" xmlns="http://www.w3.org/2000/svg">
<path id="Path" d="M13.6667 1.86598C13.1709 2.08348 12.6425 2.22764 12.0917 2.29764C12.6584 1.95931 13.0909 1.42765 13.2942 0.786827C12.7659 1.10182 12.1825 1.32432 11.5609 1.44849C11.0592 0.914326 10.3442 0.583496 9.56423 0.583496C8.05091 0.583496 6.83259 1.81182 6.83259 3.31763C6.83259 3.5343 6.85092 3.74263 6.89592 3.94096C4.62345 3.83013 2.61264 2.74097 1.26182 1.08182C1.02599 1.49099 0.887657 1.95931 0.887657 2.46348C0.887657 3.41013 1.37515 4.24929 2.10181 4.73512C1.66265 4.72678 1.23182 4.59928 0.866823 4.39845C0.866823 4.40679 0.866823 4.41762 0.866823 4.42845C0.866823 5.75677 1.81431 6.86009 3.0568 7.11426C2.8343 7.17509 2.5918 7.20426 2.34014 7.20426C2.16514 7.20426 1.98848 7.19426 1.82265 7.15759C2.17681 8.24008 3.1818 9.0359 4.37678 9.06174C3.44679 9.78923 2.26597 10.2276 0.987655 10.2276C0.763491 10.2276 0.548494 10.2176 0.333496 10.1901C1.54432 10.9709 2.9793 11.4167 4.52678 11.4167C9.55673 11.4167 12.3067 7.25009 12.3067 3.63846C12.3067 3.51763 12.3025 3.40096 12.2967 3.28513C12.8392 2.90014 13.295 2.41931 13.6667 1.86598Z" fill="#1C2661"/>
</svg>
