<svg width="1440" height="948" viewBox="0 0 1440 948" fill="none" xmlns="http://www.w3.org/2000/svg">
<path opacity="0.8" fill-rule="evenodd" clip-rule="evenodd" d="M270.5 852.5C213 872.5 142.5 896.567 75.5003 877C11.2641 858.24 -21.4996 813.5 -66.4996 758.5C-106.032 710.183 -101.11 667.203 -109.717 605.371C-119.919 532.088 -153.933 456.298 -122.688 389.221C-89.4625 317.893 -83.0174 235.268 -27.9997 179C16.0003 134 118.809 123.347 184.501 164.5C230.493 193.312 302.066 272.053 350 297.5C471.5 362 599.462 273 611 443.5C616.451 524.043 507.501 678.5 437 746.5C379.555 801.908 333.135 830.714 270.5 852.5Z" fill="#C7199D"/>
<path fill-rule="evenodd" clip-rule="evenodd" d="M1089.96 -334.264C1139.43 -378.434 1195.61 -422.609 1261.9 -424.281C1328.8 -425.969 1389.72 -387.118 1440.1 -343.098C1487.12 -302.025 1507.11 -242.728 1534.13 -186.452C1566.16 -119.754 1621.64 -57.918 1612.3 15.4877C1602.36 93.5452 1556.97 177.119 1484.1 206.815C1412.3 236.069 1383.09 145 1307.09 122C1254.51 108.559 1178.29 101.998 1127.09 84.0001C1049.27 56.6458 915.529 102.031 885.171 25.342C855.457 -49.7177 953.585 -114.477 993.541 -184.639C1023.64 -237.491 1044.6 -293.75 1089.96 -334.264Z" fill="#C7199D"/>
<path opacity="0.96" d="M591.5 753.5C413.5 884 326 882 -4 744.5V-5H1438.5L1463 753C1463 756.5 1483.87 764.55 1431 761C1328.11 754.092 1366 667 1366 618C1366 565 1260 599 1226.5 608C1167.5 623.851 1087.5 671.5 978.5 697.5C838.916 730.795 880.197 541.843 591.5 753.5Z" fill="url(#paint0_linear_105_1039)"/>
<defs>
<linearGradient id="paint0_linear_105_1039" x1="-4" y1="378" x2="1428.5" y2="429.5" gradientUnits="userSpaceOnUse">
<stop stop-color="#734192"/>
<stop offset="1" stop-color="#9B309D"/>
</linearGradient>
</defs>
</svg>
