<svg width="1440" height="852" viewBox="0 0 1440 852" fill="none" xmlns="http://www.w3.org/2000/svg">
<path opacity="0.8" fill-rule="evenodd" clip-rule="evenodd" d="M7.90366 -270.86C-50.5925 -253.994 -122.051 -232.943 -165.461 -178.286C-207.08 -125.883 -208.002 -70.4363 -212.992 0.451637C-217.376 62.7261 -188.544 94.9783 -159.874 150.434C-125.895 216.16 -109.913 297.681 -45.6753 334.411C22.6332 373.47 75.5971 437.213 153.005 451.393C214.911 462.734 305.006 412.078 334.885 340.55C355.805 290.473 368.785 184.858 393.233 136.406C455.202 13.596 611.066 12.3897 522.053 -133.487C480.004 -202.398 301.872 -265.614 205.05 -280.435C126.156 -292.512 71.6228 -289.232 7.90366 -270.86Z" fill="#C7199D"/>
<path fill-rule="evenodd" clip-rule="evenodd" d="M1342.93 -253.261C1406.39 -272.525 1475.94 -288.966 1536.78 -262.598C1598.18 -235.987 1637.11 -175.115 1664.3 -113.982C1689.67 -56.9428 1682.87 5.2621 1683.71 67.6848C1684.71 141.668 1709.02 221.102 1669.67 283.768C1627.82 350.405 1551.49 407.13 1472.88 403.413C1395.44 399.75 1407.25 304.842 1347.97 252.005C1305.93 217.692 1239.54 179.677 1200.66 141.811C1141.57 84.2596 1009.5 64 966 -16.5C909.134 -108.829 1126.75 -111.237 1192.51 -158.081C1242.05 -193.368 1284.73 -235.591 1342.93 -253.261Z" fill="#C7199D"/>
<path opacity="0.96" d="M595.5 755.5C417.5 886 330 884 0 746.5V-3H1442.5L1467 755C1467 758.5 1487.87 766.55 1435 763C1332.11 756.092 1370 669 1370 620C1370 567 1264 601 1230.5 610C1171.5 625.851 1093.5 635 984.5 661C844.916 694.295 884.197 543.843 595.5 755.5Z" fill="url(#paint0_linear_117_1808)"/>
<defs>
<linearGradient id="paint0_linear_117_1808" x1="-2.36871e-06" y1="380" x2="1432.5" y2="431.5" gradientUnits="userSpaceOnUse">
<stop stop-color="#734192"/>
<stop offset="1" stop-color="#9B309D"/>
</linearGradient>
</defs>
</svg>
