<svg width="1440" height="852" viewBox="0 0 1440 852" fill="none" xmlns="http://www.w3.org/2000/svg">
<path opacity="0.8" fill-rule="evenodd" clip-rule="evenodd" d="M866.17 -351.411C811.279 -379.564 743.922 -413.644 674.754 -405.138C608.439 -396.984 570.342 -358.934 518.8 -312.889C473.521 -272.438 473.206 -230.264 457.114 -172.014C438.041 -102.977 394.926 -35.2021 417.924 34.2576C442.38 108.119 438.768 188.729 486.778 251.445C525.174 301.602 626.367 327.746 696.854 298.239C746.203 277.581 827.119 212.764 877.996 195.648C1006.95 152.265 1009.7 122.941 1193.16 197.14C1275.28 230.353 1081.29 -147.144 1019.27 -223.556C968.738 -285.818 925.962 -320.745 866.17 -351.411Z" fill="#C7199D"/>
<path fill-rule="evenodd" clip-rule="evenodd" d="M1161.57 -240.831C1219.01 -273.979 1283.02 -305.761 1348.26 -293.872C1414.09 -281.874 1465.8 -231.411 1506.15 -178.035C1543.79 -128.233 1551.26 -66.1046 1566.24 -5.49832C1583.98 66.3318 1625.67 138.186 1601.55 208.141C1575.9 282.53 1514.41 355.085 1437.01 369.285C1360.75 383.274 1354.71 271.523 1285 233.5C1236.27 209.612 1179 179 1127 163C1036.65 135.199 908.745 143.76 848.127 75.2181C771.811 -1.81477 983.213 -53.4954 1036.65 -114.029C1076.9 -159.627 1108.89 -210.427 1161.57 -240.831Z" fill="#C7199D"/>
<path opacity="0.96" d="M595.5 755.5C417.5 886 330 884 0 746.5V-3H1442.5L1467 755C1467 758.5 1487.87 766.55 1435 763C1332.11 756.092 1326 654 1326 605C1326 552 1196 603.5 1162.5 612.5C1103.5 628.351 1093.5 635 984.5 661C844.916 694.295 884.197 543.843 595.5 755.5Z" fill="url(#paint0_linear_309_14)"/>
<defs>
<linearGradient id="paint0_linear_309_14" x1="-2.36871e-06" y1="380" x2="1432.5" y2="431.5" gradientUnits="userSpaceOnUse">
<stop stop-color="#734192"/>
<stop offset="1" stop-color="#9B309D"/>
</linearGradient>
</defs>
</svg>
