<svg width="1440" height="852" viewBox="0 0 1440 852" fill="none" xmlns="http://www.w3.org/2000/svg">
<path opacity="0.8" fill-rule="evenodd" clip-rule="evenodd" d="M1050.3 691.469C992.798 711.469 922.298 735.536 855.298 715.969C791.061 697.209 758.298 652.469 713.298 597.469C673.766 549.152 678.687 506.172 670.08 444.34C659.879 371.057 625.865 295.267 657.11 228.19C690.335 156.862 696.78 74.2373 751.798 17.9692C795.798 -27.0307 898.606 -37.6837 964.298 3.46887C1010.29 32.2807 1081.86 111.022 1129.8 136.469C1251.3 200.969 1379.26 111.969 1390.8 282.469C1396.25 363.012 1287.3 517.469 1216.8 585.469C1159.35 640.877 1112.93 669.683 1050.3 691.469Z" fill="#C7199D"/>
<path fill-rule="evenodd" clip-rule="evenodd" d="M1089.96 -334.264C1139.43 -378.434 1195.61 -422.609 1261.9 -424.281C1328.8 -425.969 1389.72 -387.118 1440.1 -343.098C1487.12 -302.025 1507.11 -242.728 1534.13 -186.452C1566.16 -119.754 1621.64 -57.918 1612.3 15.4877C1602.36 93.5452 1556.97 177.119 1484.1 206.815C1412.3 236.069 1383.09 145 1307.09 122C1254.51 108.559 1178.29 101.998 1127.09 84.0001C1049.27 56.6458 915.529 102.031 885.17 25.342C855.457 -49.7177 953.584 -114.477 993.541 -184.639C1023.64 -237.491 1044.6 -293.75 1089.96 -334.264Z" fill="#C7199D"/>
<path opacity="0.96" d="M595.5 755.5C417.5 886 330 884 0 746.5V-3H1442.5L1467 755C1467 758.5 1487.87 766.55 1435 763C1332.11 756.092 1370 669 1370 620C1370 567 1264 601 1230.5 610C1171.5 625.851 1091.5 673.5 982.5 699.5C842.916 732.795 884.197 543.843 595.5 755.5Z" fill="url(#paint0_linear_126_1832)"/>
<defs>
<linearGradient id="paint0_linear_126_1832" x1="-2.36871e-06" y1="380" x2="1432.5" y2="431.5" gradientUnits="userSpaceOnUse">
<stop stop-color="#734192"/>
<stop offset="1" stop-color="#9B309D"/>
</linearGradient>
</defs>
</svg>
